<svg xmlns="http://www.w3.org/2000/svg" xmlns:xlink="http://www.w3.org/1999/xlink" xmlns:fi="http://pattern.flaticon.com/" x="0" y="0" width="500" height="250" viewBox="0 0 700 350"><rect x="0px" y="0px" width="100%" height="100%" opacity="1" fill="#fffbe5"/><defs><g transform="matrix(0.1171875 0 0 0.1171875 76 127.00000041484833)" id="L1_185"><path d="M349.266,240.398c-4.148,0-7.51,3.363-7.51,7.51v8.676c0,4.148,3.363,7.51,7.51,7.51c4.147,0,7.51-3.363,7.51-7.51v-8.676    C356.776,243.76,353.414,240.398,349.266,240.398z" fill="#ff9e9d"/><path d="M407.841,240.398c-4.147,0-7.51,3.363-7.51,7.51v8.676c0,4.147,3.362,7.51,7.51,7.51s7.51-3.363,7.51-7.51v-8.676    C415.351,243.76,411.988,240.398,407.841,240.398z" fill="#ff9e9d"/><path d="M399.082,283.635c-3.367-2.422-8.06-1.657-10.483,1.71c-1.475,2.05-5.154,4.118-10.046,4.118    c-4.892,0-8.571-2.068-10.046-4.118c-2.423-3.367-7.116-4.132-10.483-1.71c-3.367,2.423-4.133,7.116-1.71,10.483    c4.671,6.491,12.985,10.366,22.239,10.366c9.255,0,17.568-3.875,22.239-10.366C403.215,290.751,402.449,286.058,399.082,283.635z" fill="#ff9e9d"/><path d="M108.99,251.769c-4.148,0-7.51,3.363-7.51,7.51v8.4c0,4.148,3.363,7.51,7.51,7.51c4.147,0,7.51-3.362,7.51-7.51v-8.4    C116.5,255.131,113.137,251.769,108.99,251.769z" fill="#ff9e9d"/><path d="M157.361,293.677c-3.367-2.422-8.06-1.657-10.482,1.71c-1.393,1.935-4.88,3.888-9.533,3.888s-8.14-1.953-9.533-3.888    c-2.423-3.367-7.117-4.132-10.483-1.71c-3.367,2.423-4.132,7.116-1.71,10.483c4.567,6.347,12.688,10.135,21.725,10.135    c9.037,0,17.159-3.789,21.726-10.135C161.493,300.794,160.728,296.1,157.361,293.677z" fill="#ff9e9d"/><path d="M295.476,404.379c-4.148,0-7.51,3.363-7.51,7.51v14.649c0,4.148,3.362,7.51,7.51,7.51s7.51-3.363,7.51-7.51v-14.649    C302.987,407.741,299.624,404.379,295.476,404.379z" fill="#ff9e9d"/><path d="M288.684,13.061c-12.258,0-23.798,4.475-32.719,12.498c-8.921-8.023-20.461-12.498-32.719-12.498    c-27.037,0-49.033,21.996-49.033,49.033c-0.001,23.803,13.884,46.696,40.152,66.204c19.146,14.219,38.066,21.7,38.862,22.011    c0.88,0.344,1.808,0.516,2.737,0.516c0.929,0,1.857-0.172,2.737-0.516c0.796-0.311,19.715-7.792,38.862-22.011    c26.269-19.509,40.154-42.401,40.154-66.204C337.717,35.057,315.721,13.061,288.684,13.061z M255.963,135.156    c-12.889-5.708-66.731-32.018-66.731-73.061c0-18.755,15.258-34.013,34.013-34.013c10.533,0,20.303,4.765,26.804,13.073    c1.423,1.819,3.605,2.882,5.914,2.882c2.309,0,4.491-1.063,5.914-2.882c6.502-8.308,16.272-13.073,26.804-13.073    c18.755,0,34.013,15.258,34.013,34.013C322.694,103.144,268.84,129.455,255.963,135.156z" fill="#ff9e9d"/><path d="M468.421,346.269l-47.475-13.979c-0.225-0.068-0.455-0.127-0.689-0.175l-7.449-1.497    c-1.771-0.356-3.057-1.926-3.057-3.733v-3.583c19.497-8.891,34.579-25.829,40.949-46.558h5.741c10.129,0,18.37-8.241,18.37-18.37    V246.34c0-5.418-2.406-10.478-6.397-13.916v-13.246c0-43.173-35.124-78.297-78.297-78.297H366.99    c-43.173,0-78.297,35.124-78.297,78.297v13.246c-3.991,3.438-6.397,8.498-6.397,13.916v12.034c0,10.129,8.241,18.37,18.37,18.37    h5.741c6.224,20.252,20.753,36.9,39.6,45.947v4.465c0,1.807-1.286,3.378-3.057,3.734l-5.984,1.203    c-0.005,0.001-0.01,0.002-0.016,0.003l-0.1,0.02c-0.235,0.047-0.465,0.107-0.691,0.175l-47.473,13.978    c-16.535,4.868-29.847,16.554-37.23,31.402c-3.198-5.079-7.189-9.644-11.826-13.491l18.299-5.795    c10.481-3.319,17.357-13.314,16.723-24.304c-1.128-19.541-5.882-59.123-25.047-104.665c-23.81-56.579-57.938-78.25-83.323-86.366    c-6.483-8.985-17.033-14.849-28.934-14.849s-22.452,5.864-28.935,14.849c-25.385,8.117-59.513,29.788-83.323,86.366    C5.923,274.958,1.169,314.54,0.041,334.08c-0.635,10.99,6.242,20.985,16.723,24.304l18.298,5.795    c-12.641,10.487-20.497,26.304-20.497,43.344v83.905c0,4.148,3.363,7.51,7.51,7.51l482.415-0.049c4.148,0,7.51-3.362,7.51-7.51    v-86.85C512,377.781,494.079,353.823,468.421,346.269z M235.759,235.242c18.293,43.47,22.824,81.127,23.896,99.704    c0.238,4.126-2.337,7.876-6.262,9.119l-31.828,10.08c-0.593-0.197-1.188-0.383-1.783-0.558l-43.497-12.809    c-0.211-0.063-0.425-0.115-0.642-0.159l-6.818-1.371c-1.326-0.266-2.288-1.441-2.288-2.793v-3.446    c0.289-0.126,0.567-0.271,0.854-0.401c0.786-0.355,1.567-0.715,2.338-1.097c0.381-0.189,0.757-0.386,1.134-0.582    c0.776-0.401,1.544-0.811,2.304-1.238c0.328-0.185,0.653-0.373,0.978-0.563c0.827-0.482,1.644-0.981,2.45-1.494    c0.235-0.15,0.47-0.298,0.702-0.451c0.94-0.613,1.864-1.248,2.773-1.903c0.089-0.064,0.18-0.126,0.269-0.191    c12.672-9.21,22.301-22.363,27.04-37.655h5.537c9.938,0,18.024-8.086,18.024-18.024v-11.651c0-0.553-0.034-1.098-0.083-1.638    c-0.012-0.131-0.025-0.261-0.039-0.391c-0.06-0.532-0.136-1.06-0.241-1.578c-0.007-0.034-0.017-0.067-0.024-0.1    c-0.103-0.491-0.231-0.973-0.373-1.449c-0.036-0.12-0.072-0.24-0.11-0.359c-0.159-0.495-0.334-0.982-0.534-1.457    c-0.022-0.052-0.047-0.101-0.069-0.153c-0.188-0.434-0.394-0.857-0.614-1.273c-0.056-0.106-0.111-0.212-0.17-0.317    c-0.248-0.447-0.511-0.884-0.794-1.306c-0.041-0.061-0.085-0.118-0.127-0.178c-0.259-0.375-0.532-0.739-0.818-1.093    c-0.072-0.089-0.142-0.179-0.216-0.267c-0.326-0.389-0.665-0.765-1.022-1.124c-0.06-0.061-0.124-0.118-0.185-0.178    c-0.32-0.313-0.651-0.614-0.993-0.903c-0.083-0.07-0.164-0.141-0.248-0.21c-0.393-0.32-0.799-0.625-1.219-0.912    c-0.079-0.054-0.161-0.104-0.24-0.156c-0.192-0.127-0.382-0.257-0.579-0.377c-0.002-1.247-0.041-2.488-0.098-3.727    c-0.02-0.45-0.049-0.896-0.076-1.344c-0.048-0.771-0.107-1.539-0.176-2.306c-0.052-0.59-0.101-1.181-0.165-1.767    c-0.023-0.203-0.053-0.405-0.077-0.608c-2.496-21.446-13.01-40.467-28.464-53.996c-0.001-0.001-0.002-0.001-0.002-0.002    c-1.44-1.261-2.918-2.479-4.441-3.641c-0.073-0.056-0.144-0.115-0.218-0.171c-0.467-0.354-0.944-0.696-1.419-1.04    c-0.558-0.406-1.119-0.808-1.687-1.201c-0.387-0.267-0.774-0.532-1.165-0.792c-0.84-0.56-1.69-1.106-2.552-1.638    c-0.153-0.094-0.302-0.193-0.455-0.286c-1.085-0.659-2.189-1.292-3.307-1.904c-0.172-0.094-0.346-0.183-0.518-0.276    c-0.961-0.517-1.933-1.015-2.917-1.496c-0.229-0.112-0.458-0.224-0.688-0.334c-0.279-0.133-0.553-0.275-0.834-0.406    c0.022-0.513,0.034-1.026,0.034-1.538c0-0.661-0.021-1.317-0.057-1.97c-0.002-0.031-0.001-0.062-0.003-0.093    C193.436,171.52,217.609,192.112,235.759,235.242z M165.702,275.189c4.148,0,7.51-3.363,7.51-7.51v-8.4    c0-1.7-0.572-3.263-1.524-4.522h23.938v11.018c0,1.039-0.029,2.079-0.086,3.121c-0.004,0.068-0.012,0.135-0.015,0.203    c-0.057,0.984-0.135,1.968-0.242,2.952c-0.003,0.024-0.006,0.047-0.009,0.071c-0.112,1.016-0.25,2.031-0.415,3.043    c-0.008,0.051-0.019,0.101-0.027,0.152c-0.159,0.958-0.342,1.913-0.548,2.865c-0.091,0.416-0.188,0.83-0.288,1.244    c-0.142,0.589-0.293,1.175-0.453,1.758c-0.11,0.402-0.223,0.803-0.342,1.202c-0.12,0.401-0.24,0.802-0.368,1.199    c-0.139,0.433-0.288,0.861-0.437,1.289c-0.222,0.636-0.453,1.268-0.697,1.894c-0.101,0.261-0.203,0.521-0.308,0.78    c-0.645,1.591-1.357,3.152-2.137,4.674c-0.021,0.04-0.041,0.081-0.062,0.121c-3.912,7.586-9.463,14.252-16.192,19.485    c-0.071,0.055-0.141,0.112-0.212,0.166c-0.411,0.317-0.828,0.627-1.248,0.933c-0.234,0.17-0.471,0.337-0.707,0.503    c-0.55,0.389-1.108,0.768-1.672,1.138c-0.387,0.253-0.774,0.505-1.167,0.749c-0.3,0.187-0.603,0.37-0.907,0.552    c-0.533,0.317-1.07,0.628-1.613,0.929c-0.22,0.122-0.44,0.243-0.661,0.363c-0.62,0.333-1.247,0.654-1.88,0.964    c-0.223,0.11-0.448,0.218-0.673,0.325c-0.726,0.345-1.458,0.681-2.2,0.996c-0.085,0.036-0.171,0.069-0.257,0.104    c-0.676,0.283-1.36,0.551-2.048,0.809c-0.254,0.095-0.509,0.189-0.765,0.281c-0.457,0.164-0.919,0.315-1.381,0.468    c-0.419,0.138-0.837,0.281-1.258,0.41c-0.429,0.131-0.864,0.248-1.297,0.369c-0.733,0.205-1.47,0.397-2.21,0.573    c-0.495,0.118-0.988,0.239-1.487,0.344c-0.403,0.085-0.808,0.155-1.213,0.232c-0.487,0.092-0.973,0.183-1.464,0.262    c-0.396,0.064-0.793,0.12-1.19,0.176c-0.519,0.073-1.041,0.14-1.564,0.199c-0.372,0.042-0.744,0.082-1.117,0.117    c-0.59,0.055-1.184,0.098-1.78,0.136c-0.312,0.02-0.623,0.044-0.936,0.059c-0.911,0.043-1.826,0.07-2.748,0.07    c-0.947,0-1.889-0.027-2.825-0.072c-0.286-0.014-0.571-0.039-0.856-0.057c-0.656-0.041-1.312-0.087-1.962-0.15    c-0.318-0.031-0.635-0.07-0.952-0.106c-0.622-0.07-1.241-0.147-1.857-0.237c-0.311-0.045-0.621-0.095-0.931-0.145    c-0.628-0.102-1.254-0.214-1.875-0.336c-0.284-0.056-0.568-0.112-0.851-0.172c-0.66-0.14-1.315-0.293-1.966-0.455    c-0.238-0.059-0.476-0.116-0.713-0.178c-0.735-0.193-1.463-0.402-2.186-0.622c-0.146-0.045-0.294-0.085-0.44-0.131    c-3.559-1.117-6.971-2.567-10.201-4.313c-0.103-0.056-0.205-0.112-0.307-0.168c-0.722-0.396-1.435-0.806-2.137-1.23    c-0.177-0.108-0.351-0.22-0.527-0.329c-0.478-0.296-0.95-0.601-1.419-0.911c-0.366-0.243-0.731-0.487-1.091-0.738    c-0.131-0.09-0.259-0.185-0.389-0.276c-9.247-6.55-16.521-15.732-20.718-26.288c-0.027-0.069-0.055-0.138-0.082-0.207    c-0.371-0.944-0.714-1.901-1.035-2.865c-0.054-0.163-0.113-0.324-0.165-0.488c-0.135-0.42-0.261-0.843-0.387-1.266    c-0.113-0.382-0.222-0.767-0.328-1.153c-0.145-0.527-0.283-1.056-0.412-1.588c-0.114-0.467-0.223-0.935-0.325-1.407    c-0.202-0.933-0.381-1.87-0.538-2.81c-0.011-0.069-0.026-0.137-0.037-0.206c-0.162-0.994-0.297-1.991-0.407-2.988    c-0.004-0.041-0.011-0.081-0.016-0.122c-0.105-0.969-0.182-1.939-0.238-2.909c-0.005-0.081-0.014-0.16-0.018-0.241    c-0.056-1.04-0.085-2.08-0.085-3.118V253.7c0.07-0.029,0.136-0.066,0.205-0.095c0.276-0.118,0.547-0.244,0.814-0.379    c0.107-0.054,0.214-0.106,0.319-0.162c0.357-0.191,0.707-0.393,1.046-0.614c0.006-0.004,0.011-0.008,0.017-0.012    c0.333-0.218,0.653-0.453,0.967-0.698c0.094-0.073,0.185-0.15,0.277-0.226c0.233-0.192,0.46-0.391,0.68-0.597    c0.086-0.081,0.173-0.16,0.258-0.243c0.58-0.57,1.113-1.192,1.591-1.862c0.07-0.098,0.135-0.198,0.203-0.297    c0.172-0.254,0.336-0.514,0.492-0.781c0.061-0.105,0.124-0.208,0.183-0.315c0.201-0.365,0.393-0.737,0.563-1.123    c0.157-0.356,0.287-0.724,0.387-1.101l5.537-20.785c0.329-1.235,1.254-1.695,1.776-1.859c0.525-0.164,1.55-0.317,2.532,0.511    c26.874,22.697,48.353,29.851,63.066,31.358c-1.112,1.31-1.787,3.003-1.787,4.856v8.4    C158.192,271.827,161.555,275.189,165.702,275.189z M210.343,272.416c0.042-0.454,0.061-0.908,0.094-1.363    c0.042-0.591,0.094-1.179,0.122-1.774c0.057-1.169,0.089-2.338,0.089-3.504v-11.018h0.294h1.973c1.656,0,3.004,1.348,3.004,3.004    v11.651c0,1.656-1.348,3.004-3.004,3.004H210.343z M117.091,159.879c0.104-0.529,0.225-1.051,0.369-1.564    c0.028-0.102,0.065-0.202,0.095-0.304c0.128-0.43,0.267-0.855,0.421-1.273c0.053-0.143,0.109-0.284,0.165-0.426    c0.159-0.402,0.329-0.798,0.512-1.188c0.048-0.104,0.095-0.208,0.145-0.311c3.361-6.857,10.411-11.593,18.549-11.593    c8.137,0,15.185,4.734,18.547,11.59c0.052,0.105,0.099,0.212,0.149,0.318c0.182,0.387,0.35,0.781,0.508,1.18    c0.056,0.143,0.114,0.286,0.167,0.431c0.154,0.416,0.292,0.839,0.419,1.267c0.031,0.103,0.067,0.204,0.096,0.308    c0.143,0.513,0.265,1.035,0.368,1.563c0.009,0.045,0.014,0.09,0.023,0.135c-0.966-0.238-1.936-0.453-2.909-0.656    c-0.251-0.052-0.503-0.1-0.755-0.15c-1.16-0.231-2.323-0.443-3.492-0.625c-0.091-0.014-0.181-0.032-0.273-0.046    c-1.248-0.19-2.502-0.344-3.759-0.479c-0.246-0.026-0.491-0.054-0.737-0.078c-1.24-0.122-2.483-0.217-3.73-0.285    c-0.225-0.012-0.45-0.02-0.675-0.03c-1.312-0.06-2.627-0.1-3.947-0.1s-2.634,0.04-3.947,0.1c-0.225,0.01-0.451,0.018-0.676,0.03    c-1.247,0.067-2.491,0.163-3.73,0.285c-0.247,0.024-0.492,0.052-0.738,0.078c-1.257,0.134-2.51,0.288-3.758,0.479    c-0.092,0.014-0.183,0.032-0.275,0.046c-1.167,0.182-2.329,0.393-3.487,0.624c-0.254,0.05-0.508,0.098-0.761,0.151    c-0.972,0.203-1.941,0.418-2.906,0.656C117.077,159.969,117.082,159.923,117.091,159.879z M104.467,180.824    c0.146-0.078,0.291-0.16,0.438-0.237c1.841-0.969,3.732-1.858,5.665-2.663c0.22-0.091,0.442-0.177,0.663-0.266    c0.677-0.274,1.361-0.536,2.049-0.789c0.46-0.169,0.921-0.331,1.383-0.49c0.551-0.189,1.104-0.373,1.66-0.549    c0.492-0.155,0.985-0.305,1.48-0.45c0.551-0.161,1.104-0.314,1.661-0.461c0.496-0.132,0.993-0.26,1.492-0.38    c0.573-0.138,1.151-0.266,1.729-0.391c0.486-0.104,0.972-0.208,1.459-0.302c0.609-0.117,1.223-0.22,1.838-0.321    c0.465-0.077,0.93-0.156,1.397-0.223c0.656-0.094,1.317-0.171,1.979-0.246c0.435-0.05,0.868-0.106,1.304-0.148    c0.739-0.07,1.484-0.119,2.23-0.166c0.365-0.023,0.728-0.057,1.094-0.074c1.113-0.053,2.231-0.083,3.357-0.083    c1.125,0,2.243,0.03,3.356,0.083c0.367,0.017,0.732,0.051,1.099,0.074c0.744,0.047,1.487,0.095,2.224,0.166    c0.438,0.042,0.873,0.099,1.309,0.149c0.66,0.075,1.319,0.152,1.973,0.246c0.469,0.067,0.935,0.147,1.403,0.224    c0.613,0.101,1.225,0.204,1.832,0.32c0.49,0.094,0.977,0.198,1.465,0.303c0.577,0.124,1.152,0.251,1.723,0.389    c0.501,0.121,1,0.25,1.498,0.382c0.554,0.147,1.105,0.299,1.654,0.459c0.497,0.145,0.992,0.296,1.487,0.452    c0.554,0.175,1.105,0.358,1.653,0.547c0.465,0.16,0.928,0.322,1.39,0.492c0.688,0.254,1.373,0.515,2.051,0.79    c0.219,0.088,0.439,0.173,0.656,0.264c1.935,0.806,3.826,1.695,5.669,2.665c0.145,0.076,0.287,0.156,0.431,0.233    c0.753,0.403,1.497,0.82,2.233,1.25c0.227,0.133,0.455,0.267,0.68,0.402c0.655,0.392,1.301,0.797,1.941,1.21    c0.242,0.156,0.487,0.308,0.727,0.468c0.696,0.461,1.381,0.938,2.06,1.423c0.543,0.389,1.076,0.789,1.606,1.193    c0.295,0.224,0.592,0.445,0.883,0.673c0.562,0.442,1.116,0.894,1.664,1.353c0.116,0.097,0.232,0.194,0.348,0.292    c13.464,11.425,22.369,27.743,24.402,45.576c0.039,0.346,0.084,0.69,0.117,1.038c0.048,0.489,0.084,0.98,0.121,1.471    c0.047,0.621,0.088,1.245,0.118,1.87c0.011,0.232,0.022,0.464,0.031,0.697h-4.018h-36.838c-22.94,0-47.247-17.635-59.693-28.147    c-0.363-0.307-0.739-0.592-1.121-0.866c-0.108-0.077-0.216-0.151-0.325-0.226c-0.306-0.21-0.617-0.409-0.933-0.597    c-0.093-0.056-0.184-0.114-0.278-0.168c-0.399-0.228-0.804-0.441-1.216-0.636c-0.093-0.044-0.188-0.083-0.281-0.125    c-0.334-0.151-0.672-0.292-1.013-0.421c-0.124-0.047-0.247-0.094-0.372-0.138c-0.406-0.144-0.815-0.276-1.23-0.389    c-0.027-0.007-0.053-0.017-0.08-0.024c-0.438-0.117-0.882-0.212-1.328-0.295c-0.128-0.024-0.257-0.044-0.385-0.065    c-0.351-0.057-0.703-0.104-1.057-0.14c-0.113-0.011-0.226-0.026-0.339-0.035c-0.451-0.037-0.903-0.057-1.356-0.06    c-0.025,0-0.051-0.003-0.076-0.003c-0.097,0-0.193,0.01-0.29,0.011c-0.289,0.005-0.579,0.014-0.869,0.033    c-0.15,0.01-0.3,0.024-0.451,0.038c-0.27,0.025-0.539,0.055-0.809,0.093c-0.151,0.021-0.302,0.042-0.453,0.067    c-0.285,0.047-0.569,0.103-0.852,0.164c-0.129,0.028-0.258,0.052-0.387,0.082c-0.41,0.098-0.819,0.207-1.226,0.335    c-5.812,1.827-10.218,6.433-11.787,12.322l-5.113,19.191h-1.422h-4.018c0.009-0.232,0.019-0.464,0.031-0.696    c0.03-0.627,0.072-1.251,0.119-1.873c0.038-0.49,0.073-0.98,0.121-1.468c0.034-0.35,0.079-0.697,0.118-1.045    c2.034-17.832,10.939-34.147,24.402-45.571c0.115-0.097,0.231-0.194,0.347-0.291c0.549-0.459,1.104-0.912,1.667-1.355    c0.287-0.225,0.58-0.443,0.87-0.663c0.539-0.41,1.08-0.816,1.632-1.211c0.673-0.481,1.353-0.954,2.043-1.411    c0.243-0.161,0.491-0.315,0.736-0.473c0.638-0.411,1.28-0.814,1.932-1.204c0.228-0.137,0.457-0.272,0.687-0.406    C102.976,181.641,103.717,181.226,104.467,180.824z M21.299,344.065c-3.926-1.243-6.501-4.993-6.263-9.119    c1.073-18.578,5.603-56.234,23.896-99.704c18.15-43.129,42.323-63.722,62.806-73.436c-0.002,0.031-0.001,0.062-0.003,0.093    c-0.036,0.652-0.057,1.309-0.057,1.97c0,0.512,0.011,1.024,0.034,1.538c-0.28,0.13-0.553,0.272-0.832,0.404    c-0.232,0.111-0.463,0.225-0.694,0.337c-0.98,0.479-1.95,0.976-2.907,1.491c-0.176,0.095-0.354,0.186-0.529,0.282    c-1.116,0.611-2.218,1.242-3.3,1.9c-0.158,0.096-0.312,0.199-0.47,0.296c-0.856,0.528-1.701,1.07-2.536,1.627    c-0.394,0.262-0.785,0.53-1.175,0.799c-0.564,0.39-1.121,0.788-1.674,1.192c-0.478,0.347-0.959,0.692-1.43,1.049    c-0.053,0.04-0.104,0.083-0.156,0.123c-17.903,13.638-30.234,34.214-32.965,57.685c-0.024,0.203-0.055,0.404-0.077,0.608    c-0.064,0.587-0.113,1.177-0.165,1.767c-0.069,0.767-0.128,1.535-0.176,2.306c-0.027,0.448-0.056,0.895-0.076,1.344    c-0.057,1.238-0.096,2.48-0.098,3.727c-0.197,0.12-0.387,0.25-0.579,0.377c-0.08,0.053-0.161,0.102-0.24,0.156    c-0.42,0.287-0.826,0.592-1.219,0.912c-0.084,0.068-0.165,0.14-0.248,0.21c-0.342,0.289-0.674,0.59-0.993,0.903    c-0.061,0.06-0.125,0.117-0.185,0.178c-0.357,0.36-0.697,0.736-1.022,1.124c-0.073,0.088-0.144,0.177-0.216,0.267    c-0.285,0.354-0.559,0.717-0.818,1.093c-0.041,0.06-0.086,0.118-0.127,0.178c-0.284,0.422-0.546,0.859-0.794,1.306    c-0.058,0.105-0.113,0.211-0.17,0.317c-0.22,0.416-0.427,0.839-0.614,1.273c-0.022,0.051-0.048,0.101-0.069,0.153    c-0.2,0.475-0.375,0.962-0.534,1.457c-0.038,0.119-0.074,0.239-0.11,0.359c-0.142,0.476-0.27,0.957-0.373,1.449    c-0.007,0.034-0.017,0.067-0.024,0.1c-0.106,0.518-0.181,1.045-0.241,1.578c-0.015,0.13-0.027,0.26-0.039,0.391    c-0.049,0.541-0.083,1.085-0.083,1.638v11.651c0,9.938,8.086,18.024,18.024,18.024h5.535c0.005,0.016,0.011,0.031,0.016,0.047    c0.146,0.469,0.314,0.929,0.469,1.394c6.217,18.841,19.727,34.241,37.636,42.876c0.095,0.046,0.189,0.093,0.285,0.139    c0.403,0.192,0.796,0.401,1.203,0.586v4.226c0,1.352-0.962,2.527-2.291,2.794l-5.583,1.124c-0.215,0.044-0.428,0.096-0.639,0.158    L54.91,353.587c-0.014,0.004-0.029,0.009-0.043,0.014c-0.58,0.171-1.161,0.353-1.74,0.545L21.299,344.065z M64.134,269.281    c0.027,0.58,0.078,1.154,0.119,1.73c0.034,0.468,0.054,0.936,0.096,1.404h-2.572c-1.656,0-3.004-1.348-3.004-3.004V257.76    c0-1.656,1.348-3.004,3.004-3.004h1.974h0.294v11.018C64.045,266.942,64.077,268.111,64.134,269.281z M245.109,483.918h-0.003    h-20.682V413.08c0-3.766-1.226-7.493-3.451-10.493c-9.538-12.863-24.777-20.542-40.764-20.542    c-15.112,0-29.327,6.67-39.001,18.298c-1.327,1.596-2.989,1.835-3.862,1.835s-2.535-0.238-3.863-1.835    c-9.673-11.629-23.889-18.298-39-18.298c-15.987,0-31.226,7.679-40.764,20.542c-2.226,3.001-3.451,6.728-3.451,10.494v13.458    c0,4.148,3.363,7.51,7.51,7.51c4.147,0,7.51-3.363,7.51-7.51v-13.458c0-0.566,0.176-1.115,0.496-1.547    c6.818-9.195,17.279-14.469,28.699-14.469c10.636,0,20.642,4.696,27.453,12.884c3.833,4.607,9.449,7.25,15.411,7.249    c5.961,0,11.577-2.642,15.409-7.249c6.811-8.188,16.817-12.884,27.454-12.884c11.42,0,21.881,5.273,28.699,14.469    c0.319,0.431,0.495,0.98,0.495,1.546v70.838H65.288v-22.435c0-4.148-3.363-7.51-7.51-7.51c-4.147,0-7.51,3.363-7.51,7.51v22.435    H29.585v-76.395c0-17.461,11.258-33.164,27.617-38.894c0.116-0.041,0.231-0.086,0.347-0.126c0.206-0.07,0.416-0.131,0.624-0.198    c0.327-0.105,0.654-0.215,0.981-0.311h-0.001l43.18-12.715l5.26-1.057c0.512-0.103,1.015-0.228,1.509-0.374    c0.168-0.049,0.329-0.114,0.494-0.168c0.321-0.105,0.644-0.207,0.957-0.329c0.194-0.076,0.38-0.167,0.57-0.249    c0.275-0.119,0.552-0.233,0.819-0.364c0.198-0.098,0.387-0.21,0.581-0.314c0.248-0.134,0.499-0.264,0.74-0.409    c0.196-0.118,0.382-0.249,0.572-0.374c0.227-0.149,0.456-0.294,0.676-0.453c0.189-0.137,0.367-0.285,0.55-0.428    c0.208-0.164,0.419-0.324,0.62-0.496c0.179-0.153,0.347-0.317,0.519-0.477c0.191-0.178,0.384-0.353,0.567-0.538    c0.167-0.169,0.323-0.347,0.483-0.522c0.174-0.191,0.349-0.379,0.515-0.577c0.153-0.184,0.297-0.375,0.443-0.564    c0.156-0.203,0.314-0.404,0.461-0.614c0.138-0.196,0.267-0.399,0.398-0.602c0.139-0.214,0.278-0.428,0.407-0.648    c0.122-0.208,0.235-0.421,0.349-0.635c0.121-0.225,0.241-0.45,0.352-0.681c0.105-0.218,0.201-0.441,0.297-0.664    c0.102-0.235,0.202-0.47,0.294-0.71c0.087-0.228,0.165-0.459,0.242-0.69c0.082-0.244,0.162-0.489,0.233-0.738    c0.068-0.235,0.127-0.472,0.185-0.711c0.062-0.253,0.12-0.506,0.171-0.763c0.048-0.242,0.087-0.485,0.125-0.729    c0.04-0.26,0.076-0.521,0.105-0.785c0.027-0.247,0.047-0.494,0.063-0.744c0.009-0.143,0.03-0.283,0.036-0.427    c0.129,0.028,0.261,0.046,0.391,0.073c0.544,0.114,1.094,0.207,1.642,0.309c0.647,0.12,1.292,0.246,1.943,0.348    c0.641,0.101,1.289,0.178,1.936,0.262c0.563,0.073,1.124,0.155,1.69,0.215c0.732,0.078,1.471,0.13,2.209,0.186    c0.491,0.037,0.981,0.085,1.473,0.112c0.77,0.043,1.546,0.059,2.321,0.078c0.471,0.011,0.941,0.033,1.412,0.036    c0.135,0.001,0.268,0.01,0.404,0.01c0.666,0,1.325-0.033,1.987-0.05c0.448-0.012,0.896-0.014,1.344-0.034    c0.828-0.037,1.649-0.102,2.47-0.166c0.416-0.033,0.832-0.055,1.247-0.095c0.842-0.081,1.675-0.188,2.508-0.297    c0.394-0.052,0.789-0.093,1.181-0.151c0.881-0.13,1.752-0.287,2.622-0.448c0.284-0.053,0.571-0.09,0.854-0.146    c0.004,0.06,0.015,0.119,0.02,0.179c0.018,0.225,0.048,0.447,0.075,0.671c0.033,0.282,0.066,0.563,0.112,0.841    c0.037,0.224,0.085,0.444,0.131,0.665c0.056,0.271,0.112,0.542,0.181,0.808c0.056,0.22,0.121,0.437,0.186,0.654    c0.077,0.261,0.157,0.52,0.246,0.777c0.075,0.215,0.156,0.426,0.239,0.637c0.098,0.251,0.199,0.5,0.308,0.746    c0.092,0.207,0.189,0.411,0.289,0.614c0.118,0.24,0.239,0.477,0.367,0.711c0.109,0.199,0.221,0.395,0.337,0.589    c0.137,0.229,0.278,0.454,0.424,0.676c0.124,0.189,0.251,0.375,0.382,0.559c0.155,0.216,0.315,0.428,0.479,0.637    c0.139,0.178,0.279,0.354,0.425,0.526c0.172,0.204,0.351,0.401,0.532,0.597c0.153,0.165,0.305,0.33,0.464,0.489    c0.189,0.19,0.385,0.372,0.583,0.553c0.165,0.152,0.329,0.304,0.499,0.449c0.206,0.176,0.42,0.342,0.634,0.508    c0.175,0.136,0.349,0.275,0.529,0.404c0.224,0.161,0.456,0.31,0.688,0.461c0.184,0.119,0.364,0.243,0.552,0.355    c0.243,0.145,0.494,0.277,0.744,0.411c0.189,0.101,0.374,0.208,0.567,0.303c0.267,0.131,0.543,0.246,0.818,0.363    c0.187,0.08,0.37,0.168,0.56,0.242c0.311,0.121,0.631,0.223,0.95,0.326c0.164,0.053,0.322,0.116,0.488,0.164    c0.489,0.143,0.987,0.268,1.495,0.37l6.495,1.307l43.182,12.714c0.542,0.159,1.078,0.33,1.61,0.511    c0.061,0.021,0.121,0.045,0.182,0.066c16.445,5.682,27.776,21.433,27.776,38.951V483.918z M420.862,358.413l10.241,18.083    l-29.753,46.083L420.862,358.413z M382.698,381.209h-8.29l-2.932-5.08l7.078-6.462l7.077,6.461L382.698,381.209z M384.615,425.985    l-3.318,10.911l-2.744,9.023l-6.059-19.925l4.119-29.764h3.843L384.615,425.985z M358.524,352.547    c4.577,1.203,9.247,1.975,13.943,2.338l-15.578,14.223c-0.492,0.449-0.888,0.964-1.235,1.505l-6.22-20.454L358.524,352.547z     M358.264,336.949c1.616-2.643,2.595-5.7,2.744-8.932c0.719,0.172,1.441,0.332,2.166,0.483c0.218,0.045,0.438,0.084,0.656,0.128    c0.916,0.182,1.835,0.347,2.758,0.494c0.225,0.036,0.449,0.077,0.675,0.111c0.993,0.149,1.991,0.271,2.99,0.381    c0.329,0.036,0.656,0.074,0.986,0.106c0.968,0.093,1.939,0.166,2.91,0.222c0.35,0.02,0.701,0.038,1.053,0.054    c0.988,0.044,1.977,0.07,2.966,0.075c0.129,0.001,0.256,0.01,0.386,0.01c0.192,0,0.381-0.013,0.573-0.015    c1.028-0.007,2.056-0.029,3.083-0.078c0.244-0.012,0.487-0.03,0.731-0.044c0.989-0.057,1.977-0.131,2.963-0.226    c0.157-0.015,0.315-0.026,0.472-0.042c1.112-0.114,2.22-0.26,3.325-0.424c0.172-0.026,0.345-0.049,0.517-0.076    c1.11-0.172,2.215-0.372,3.314-0.593c0.139-0.028,0.278-0.056,0.416-0.085c0.279-0.058,0.559-0.111,0.837-0.172    c0.249,3.238,1.331,6.281,3.048,8.889l-3.068,0.806c-10.607,2.787-21.818,2.787-32.424,0L358.264,336.949z M384.64,354.885    c4.696-0.362,9.365-1.135,13.942-2.338l9.09-2.388l-6.219,20.453c-0.346-0.54-0.743-1.055-1.235-1.504L384.64,354.885z     M453.768,260.451c0.055-0.721,0.12-1.44,0.155-2.167c0.06-1.223,0.093-2.446,0.093-3.667v-11.626h2.356    c0.032,0,0.068,0.003,0.099,0.003c0.216,0.002,0.431,0.025,0.642,0.07c0.015,0.003,0.031,0.007,0.045,0.011    c0.145,0.033,0.273,0.087,0.406,0.134c0.081,0.03,0.165,0.045,0.245,0.081c0.001,0,0.001,0.001,0.002,0.001    c1.203,0.543,1.98,1.74,1.98,3.048v12.034c0,1.847-1.503,3.349-3.349,3.349h-2.763    C453.717,261.299,453.735,260.875,453.768,260.451z M300.666,261.722L300.666,261.722c-1.847,0.001-3.349-1.502-3.349-3.348    V246.34c0-1.307,0.776-2.503,1.982-3.049c0.196-0.088,0.397-0.15,0.599-0.199c0.035-0.009,0.063-0.019,0.101-0.028    c0.212-0.045,0.426-0.068,0.642-0.07c0.031,0,0.063-0.002,0.094-0.003h2.356v11.626c0,1.221,0.033,2.444,0.093,3.667    c0.035,0.725,0.099,1.441,0.154,2.16c0.033,0.426,0.051,0.852,0.091,1.278H300.666z M312.752,204.739    c-0.286,0.081-0.565,0.179-0.836,0.292c-0.119,0.05-0.231,0.112-0.347,0.168c-0.146,0.07-0.295,0.134-0.436,0.213    c-0.14,0.078-0.27,0.17-0.404,0.256c-0.108,0.07-0.221,0.134-0.326,0.209c-0.139,0.1-0.267,0.213-0.398,0.322    c-0.09,0.075-0.185,0.144-0.271,0.223c-0.13,0.118-0.248,0.248-0.369,0.375c-0.078,0.082-0.16,0.158-0.234,0.243    c-0.117,0.134-0.221,0.278-0.328,0.421c-0.067,0.089-0.138,0.173-0.201,0.265c-0.101,0.148-0.19,0.304-0.28,0.46    c-0.056,0.096-0.117,0.188-0.169,0.287c-0.084,0.159-0.154,0.326-0.227,0.492c-0.038,0.088-0.085,0.171-0.12,0.261    c-0.014,0.035-0.026,0.069-0.04,0.104c-0.004,0.011-0.01,0.022-0.015,0.033c-0.007,0.02-0.014,0.041-0.021,0.061    c-0.001,0.002-0.002,0.006-0.003,0.008c-0.005,0.014-0.01,0.028-0.015,0.042c-0.389,1.058-0.749,2.123-1.089,3.194    c-0.007,0.023-0.016,0.045-0.023,0.067c-0.005,0.015-0.009,0.03-0.013,0.044c-1.341,4.243-2.305,8.584-2.874,12.996v-6.599    c0-34.89,28.385-63.276,63.276-63.276h23.126c34.89,0,63.276,28.385,63.276,63.276v6.618c-0.052-0.402-0.116-0.803-0.174-1.204    c-0.005-0.033-0.008-0.066-0.013-0.099l-0.1-0.69c-0.002-0.013-0.005-0.028-0.007-0.041c-0.162-1.034-0.347-2.063-0.551-3.087    c-0.002-0.008-0.003-0.016-0.004-0.023l-0.167-0.801c-0.004-0.017-0.008-0.033-0.012-0.05c-0.199-0.939-0.413-1.873-0.647-2.803    c-0.006-0.024-0.01-0.047-0.016-0.071l-0.069-0.283c-0.008-0.031-0.015-0.062-0.023-0.093c-0.001-0.004-0.003-0.007-0.004-0.011    c-0.009-0.035-0.019-0.071-0.029-0.107c-0.044-0.161-0.116-0.307-0.17-0.463c-0.079-0.227-0.149-0.457-0.248-0.673    c-0.075-0.162-0.171-0.31-0.257-0.465c-0.113-0.206-0.218-0.417-0.349-0.61c-0.101-0.148-0.221-0.279-0.331-0.419    c-0.141-0.179-0.275-0.365-0.431-0.53c-0.13-0.137-0.278-0.254-0.417-0.38c-0.159-0.145-0.311-0.297-0.482-0.428    c-0.165-0.126-0.347-0.228-0.522-0.34c-0.165-0.105-0.322-0.221-0.494-0.313c-0.2-0.107-0.414-0.186-0.624-0.275    c-0.164-0.069-0.322-0.152-0.491-0.209c-0.226-0.077-0.462-0.123-0.696-0.178c-0.168-0.04-0.33-0.094-0.501-0.122    c-0.227-0.037-0.461-0.042-0.693-0.058c-0.177-0.013-0.349-0.044-0.528-0.044c-0.028,0-0.056,0-0.084,0h-0.002l-0.176,0.002    c-1.319,0.015-2.611,0.376-3.746,1.049c-8.06,4.779-18.739,7.202-31.738,7.202c-13.212,0-26.584-4.191-39.515-8.244    c-16.377-5.133-33.254-10.417-50.427-7.515c-0.169,0.029-0.338,0.052-0.508,0.082c-0.058,0.011-0.117,0.024-0.175,0.034    C316.232,203.849,314.494,204.246,312.752,204.739z M319.501,267.473c-0.211-0.973-0.398-1.949-0.561-2.928    c-0.011-0.066-0.025-0.132-0.036-0.198c-0.169-1.037-0.31-2.077-0.425-3.118c-0.004-0.037-0.01-0.073-0.014-0.11    c-0.11-1.012-0.19-2.025-0.249-3.037c-0.004-0.077-0.013-0.153-0.018-0.23c-0.059-1.079-0.089-2.158-0.089-3.235v-19.02    c0-0.04,0.001-0.08,0.001-0.117c0-0.002,0-0.004,0-0.006c0-0.595,0.015-1.189,0.033-1.782c0.009-0.278,0.019-0.56,0.032-0.85    c0.009-0.206,0.022-0.412,0.033-0.618c0.004-0.05,0.006-0.1,0.01-0.15l0.036-0.506c0.041-0.634,0.083-1.267,0.144-1.902    c0-0.001,0-0.003,0-0.004c0.027-0.283,0.061-0.564,0.094-0.844l0.039-0.331c0.065-0.562,0.133-1.124,0.214-1.686    c0.059-0.413,0.127-0.823,0.195-1.234c0.088-0.53,0.181-1.057,0.284-1.589c0.08-0.417,0.164-0.832,0.253-1.244    c0.111-0.514,0.231-1.026,0.354-1.534l0.029-0.12c0.09-0.37,0.179-0.74,0.279-1.115c0.136-0.513,0.287-1.022,0.434-1.525    l0.036-0.121c0.315-0.057,0.633-0.092,0.949-0.142c0.547-0.086,1.093-0.181,1.642-0.246c0.69-0.082,1.384-0.135,2.078-0.185    c0.179-0.013,0.357-0.037,0.537-0.048c10.276-0.616,21.02,2.127,32.192,5.526c2.177,0.662,4.368,1.347,6.577,2.039    c9.632,3.019,19.489,6.108,29.75,7.744c4.664,0.744,9.411,1.187,14.258,1.187c2.385,0,4.699-0.089,6.969-0.232    c1.663-0.105,3.304-0.239,4.904-0.421c0.119-0.013,0.243-0.021,0.362-0.035c0.815-0.096,1.606-0.219,2.404-0.335    c0.473-0.069,0.958-0.123,1.425-0.199c0.482-0.078,0.946-0.178,1.422-0.263c0.763-0.137,1.533-0.266,2.28-0.422    c0.484-0.101,0.949-0.225,1.426-0.334c0.717-0.164,1.442-0.32,2.144-0.502c0.687-0.179,1.351-0.385,2.024-0.581    c0.471-0.137,0.954-0.261,1.417-0.407c0.559-0.176,1.096-0.377,1.645-0.566c0.554-0.19,1.119-0.368,1.662-0.572l0.013,0.111    c0.089,0.888,0.154,1.78,0.204,2.673c0,0.001,0,0.002,0,0.002l0.031,0.643c0,0.006,0,0.012,0.001,0.019    c0.04,0.898,0.069,1.798,0.069,2.699c0,0.002,0,0.003,0,0.005c0,0.037,0,0.076,0.001,0.117v19.02c0,1.077-0.03,2.156-0.089,3.235    c-0.004,0.077-0.013,0.153-0.018,0.23c-0.059,1.013-0.139,2.025-0.249,3.037c-0.004,0.037-0.01,0.074-0.014,0.111    c-0.115,1.04-0.256,2.079-0.425,3.115c-0.011,0.068-0.025,0.135-0.036,0.203c-0.163,0.978-0.349,1.953-0.56,2.925    c-4.624,21.254-20.451,38.374-40.971,44.821c-0.177,0.055-0.355,0.105-0.533,0.159c-0.725,0.221-1.455,0.43-2.192,0.624    c-0.262,0.069-0.525,0.131-0.787,0.196c-0.66,0.164-1.323,0.319-1.992,0.461c-0.305,0.065-0.611,0.126-0.917,0.186    c-0.636,0.125-1.275,0.239-1.917,0.343c-0.327,0.053-0.654,0.106-0.982,0.154c-0.634,0.093-1.273,0.171-1.914,0.244    c-0.332,0.038-0.663,0.079-0.996,0.111c-0.674,0.065-1.352,0.112-2.032,0.155c-0.297,0.018-0.592,0.045-0.889,0.059    c-0.972,0.047-1.948,0.074-2.931,0.074c-1.003,0-1.999-0.027-2.99-0.076c-0.342-0.017-0.681-0.05-1.022-0.072    c-0.646-0.043-1.292-0.085-1.932-0.147c-0.42-0.041-0.837-0.098-1.256-0.148c-0.552-0.066-1.105-0.13-1.653-0.211    c-0.469-0.069-0.935-0.153-1.402-0.233c-0.485-0.083-0.971-0.165-1.453-0.26c-0.512-0.101-1.021-0.216-1.531-0.33    c-0.426-0.096-0.852-0.19-1.274-0.295c-0.548-0.136-1.093-0.284-1.638-0.436c-0.375-0.104-0.75-0.208-1.122-0.319    c-0.568-0.17-1.133-0.351-1.696-0.538c-0.35-0.116-0.7-0.233-1.048-0.355c-0.554-0.195-1.104-0.4-1.654-0.612    C338.121,303.794,323.851,287.469,319.501,267.473z M336.244,358.413l19.512,64.165l-29.753-46.083L336.244,358.413z     M468.05,483.868v-71.979c0-4.148-3.362-7.51-7.51-7.51s-7.51,3.363-7.51,7.51v71.979H302.987v-22.386    c0-4.148-3.363-7.51-7.51-7.51c-4.147,0-7.51,3.363-7.51,7.51v22.386h-27.839v-76.345v-2.995    c0-20.133,13.488-38.165,32.802-43.851l29.728-8.754l-11.176,19.733c-1.949,3.44-1.728,7.664,0.539,10.874l60.223,93.277    c0.011,0.017,0.025,0.032,0.036,0.049c0.04,0.06,0.08,0.12,0.121,0.179c0.031,0.044,0.065,0.086,0.097,0.13    c0.095,0.13,0.192,0.26,0.295,0.384c0.036,0.043,0.075,0.083,0.112,0.126c0.093,0.107,0.185,0.215,0.284,0.316    c0.004,0.004,0.008,0.007,0.012,0.011c0.06,0.061,0.125,0.117,0.187,0.176c0.055,0.053,0.11,0.106,0.167,0.156    c0.147,0.131,0.3,0.255,0.458,0.375c0.036,0.028,0.07,0.057,0.107,0.083c0.029,0.021,0.055,0.044,0.084,0.065    c0.019,0.014,0.04,0.025,0.059,0.038c0.206,0.143,0.422,0.275,0.645,0.399c0.047,0.026,0.092,0.054,0.14,0.079    c0.043,0.023,0.089,0.041,0.133,0.063c0.071,0.036,0.139,0.077,0.212,0.111c0.082,0.038,0.166,0.064,0.248,0.099    c0.116,0.049,0.233,0.097,0.351,0.14c0.057,0.021,0.112,0.048,0.169,0.067c0.01,0.003,0.021,0.006,0.031,0.009    c0.105,0.035,0.211,0.057,0.316,0.088c0.104,0.029,0.207,0.061,0.312,0.086c0.13,0.031,0.26,0.055,0.391,0.079    c0.081,0.015,0.162,0.028,0.243,0.04c0.075,0.011,0.148,0.027,0.223,0.036c0.29,0.034,0.581,0.054,0.87,0.054    c0.001,0,0.003,0,0.004,0c0.001,0,0.003,0,0.004,0c0.29,0,0.58-0.02,0.87-0.054c0.075-0.009,0.149-0.025,0.224-0.036    c0.08-0.012,0.16-0.025,0.239-0.039c0.132-0.024,0.263-0.048,0.394-0.079c0.105-0.025,0.208-0.057,0.312-0.086    c0.109-0.031,0.219-0.054,0.327-0.09c0.004-0.001,0.009-0.002,0.013-0.004c0.059-0.02,0.117-0.048,0.176-0.07    c0.119-0.043,0.235-0.091,0.351-0.14c0.082-0.035,0.167-0.061,0.248-0.099c0.075-0.035,0.144-0.076,0.218-0.113    c0.04-0.02,0.083-0.037,0.123-0.058c0.049-0.026,0.096-0.055,0.144-0.081c0.223-0.124,0.439-0.255,0.645-0.399    c0.019-0.014,0.04-0.025,0.059-0.038c0.031-0.022,0.058-0.046,0.089-0.069c0.031-0.023,0.06-0.048,0.091-0.071    c0.162-0.122,0.319-0.25,0.469-0.383c0.057-0.051,0.112-0.104,0.168-0.157c0.169-0.16,0.33-0.327,0.482-0.501    c0.038-0.043,0.077-0.084,0.114-0.128c0.106-0.127,0.205-0.26,0.302-0.393c0.028-0.038,0.057-0.074,0.084-0.113    c0.043-0.061,0.085-0.123,0.126-0.185c0.011-0.017,0.025-0.032,0.036-0.049l60.223-93.277c2.267-3.209,2.489-7.434,0.54-10.871    l-11.177-19.735l29.729,8.754c19.313,5.686,32.801,23.718,32.801,43.851v79.336H468.05z" fill="#ff9e9d"/></g><path d="M506.657,297.429c-9.734-39.957-33.406-75.239-66.654-99.346c-31.649-22.947-70.186-34.566-108.96-32.959    c-17.873-38.357-48.992-68.665-88.151-85.679c-3.844-1.668-8.311,0.093-9.982,3.935c-1.669,3.843,0.092,8.312,3.935,9.982    c37.248,16.183,66.529,45.529,82.451,82.631c3.485,8.121,6.31,16.581,8.396,25.146c0.554,2.274,1.065,4.613,1.562,7.152    c0,0.002,0.001,0.004,0.001,0.005c7.596,38.77,0.449,78.75-20.125,112.577c-19.45,31.978-49.302,55.831-84.543,67.709    c-0.636-1.446-1.244-2.906-1.825-4.378c-0.007-0.017-0.013-0.033-0.019-0.05c-1.117-2.832-2.125-5.712-3.035-8.627    c-0.073-0.234-0.146-0.468-0.217-0.703c-0.421-1.377-0.822-2.762-1.196-4.155c-0.009-0.035-0.018-0.07-0.027-0.105    c66.282-22.246,106.367-91.261,91.887-160.414c0-0.001,0-0.002,0-0.003c-0.357-1.706-0.678-3.134-1.009-4.493    c-2.518-10.333-6.199-20.349-10.942-29.77c-0.01-0.02-0.021-0.038-0.031-0.058c-0.032-0.063-0.065-0.124-0.099-0.186    c-13.927-27.522-37.042-49.929-65.123-63.108c-13.462-6.318-27.83-10.383-42.475-12.136l53.893-50.094    c2.732-2.54,3.213-6.689,1.134-9.786l-0.036-0.053c-0.001-0.001-0.001-0.002-0.002-0.003L220.551,3.357    C219.142,1.259,216.78,0,214.253,0h-80.75c-2.528,0-4.889,1.259-6.299,3.357l-24.953,37.161c-2.079,3.097-1.599,7.246,1.134,9.786    l53.888,50.09c-5.487,0.655-10.948,1.632-16.349,2.947C66.337,121.512,20.439,196.977,38.608,271.564    c7.491,30.75,25.422,58.268,50.49,77.487c23.031,17.657,51.227,27.745,80.023,28.732c0.138,0.595,0.278,1.185,0.42,1.772    c0.338,1.388,0.696,2.766,1.066,4.138c0.086,0.318,0.178,0.636,0.265,0.954c0.302,1.097,0.613,2.189,0.935,3.275    c0.089,0.299,0.18,0.598,0.271,0.897c0.352,1.163,0.715,2.32,1.089,3.47c0.064,0.198,0.128,0.396,0.193,0.594    c0.449,1.362,0.91,2.716,1.39,4.06c-33.369,0.169-66.242-10.284-93.569-29.997c-30.499-22.002-52.206-54.272-61.12-90.865    c-8.898-36.525-4.499-75.102,12.389-108.625c16.701-33.153,44.553-59.474,78.427-74.114c3.846-1.663,5.616-6.128,3.954-9.974    c-1.663-3.845-6.129-5.618-9.974-3.954C67.726,95.463,37.199,124.306,18.9,160.63C0.392,197.371-4.43,239.648,5.32,279.673    c9.769,40.1,33.559,75.464,66.985,99.578c29.667,21.402,65.306,32.869,101.534,32.868c2.358,0,4.719-0.063,7.081-0.16    C209.399,472.938,271.184,512.001,338.103,512c13.553,0,27.32-1.603,41.059-4.95C472.105,484.408,529.299,390.373,506.657,297.429    z M322.094,328.758c20.906-34.372,29.15-74.547,23.602-114.089c24.688,1.53,48.747,10.541,68.456,25.813    c22.379,17.341,37.757,41.079,44.474,68.649c16.19,66.459-24.706,133.698-91.165,149.888c-32.193,7.844-65.514,2.68-93.825-14.539    c-17.523-10.658-31.823-25.147-42.04-42.274C269.28,388.951,301.18,363.146,322.094,328.758z M215.222,355.562    c-3.876-27.61,1.62-55.566,15.91-79.892c14.952-25.453,38.044-44.434,65.608-54.135    C304.867,279.674,270.586,336.037,215.222,355.562z M137.546,15.173h72.662l14.727,21.932H122.82L137.546,15.173z M127.794,52.278    h92.166l-46.083,42.835L127.794,52.278z M166.267,362.443c-24.463-1.505-48.31-10.385-67.936-25.433    c-22.655-17.369-38.208-41.242-44.979-69.038c-16.19-66.458,24.706-133.698,91.165-149.889c27.796-6.772,56.148-3.94,81.99,8.187    c22.39,10.507,41.219,27.599,53.824,48.632c-38.93,13.69-71.493,40.627-92.36,76.648    C168.378,285.372,160.884,324.174,166.267,362.443z M375.571,492.308c-12.543,3.056-25.095,4.518-37.467,4.517    c-62.996-0.005-121.013-37.948-145.81-96.643c-0.271-0.643-0.542-1.285-0.805-1.931c-0.106-0.261-0.208-0.524-0.313-0.785    c-0.323-0.806-0.643-1.614-0.952-2.426c-0.046-0.121-0.09-0.243-0.136-0.365c-0.354-0.935-0.702-1.873-1.038-2.815    c-0.011-0.03-0.021-0.061-0.032-0.091c-0.363-1.017-0.716-2.038-1.058-3.063c-0.002-0.006-0.004-0.011-0.006-0.017    c-0.347-1.039-0.683-2.081-1.008-3.126c-0.023-0.074-0.044-0.149-0.067-0.223c-0.301-0.974-0.595-1.949-0.877-2.927    c-0.092-0.32-0.178-0.643-0.269-0.965c-0.209-0.74-0.418-1.48-0.616-2.223c-0.288-1.082-0.566-2.169-0.832-3.262    c-0.27-1.107-0.523-2.216-0.768-3.326c-0.095-0.432-0.188-0.874-0.281-1.315c-0.107-0.505-0.21-1.01-0.312-1.515    c-0.067-0.332-0.134-0.659-0.201-0.998c-0.009-0.046-0.023-0.089-0.032-0.134c-7.33-37.585-0.891-76.201,18.41-109.52    c19.4-33.49,49.875-58.373,86.283-70.634c2.555,5.811,4.67,11.84,6.32,18.01c-31.829,10.663-58.509,32.268-75.652,61.451    c-17.646,30.037-23.34,65.006-16.228,98.962c0,0.002,0.001,0.005,0.001,0.007c0.003,0.017,0.007,0.031,0.01,0.048    c0.126,0.601,0.254,1.201,0.388,1.801c0.206,0.935,0.407,1.807,0.611,2.645c0.3,1.231,0.619,2.454,0.95,3.672    c0.081,0.298,0.169,0.595,0.252,0.893c0.264,0.946,0.535,1.889,0.817,2.826c0.085,0.283,0.174,0.564,0.262,0.846    c0.305,0.989,0.62,1.974,0.945,2.954c0.066,0.197,0.132,0.393,0.198,0.589c0.381,1.131,0.777,2.255,1.186,3.372    c0.015,0.04,0.029,0.08,0.044,0.12c10.804,29.436,31.08,54.189,58.267,70.725c22.086,13.433,46.886,20.329,72.093,20.328    c11.055,0,22.192-1.327,33.208-4.011c74.587-18.17,120.485-93.635,102.315-168.222c-7.538-30.941-24.801-57.585-49.923-77.051    c-23.113-17.909-51.562-28.169-80.59-29.164c-0.138-0.597-0.278-1.189-0.422-1.777c-1.428-5.864-3.173-11.684-5.213-17.395    c33.493-0.2,66.498,10.367,93.874,30.216c30.337,21.995,51.935,54.19,60.819,90.653    C512.576,385.835,460.385,471.646,375.571,492.308z" transform="matrix(0.1171875 0 0 0.1171875 265 56)" id="L1_186" fill="#bdb780"/><g transform="matrix(0.1171875 0 0 0.1171875 75 308)" id="L1_187"><path d="M73.539,80.511h-8.02v-8.02c0-4.027-3.264-7.291-7.291-7.291c-4.027,0-7.291,3.264-7.291,7.291v8.02h-8.02    c-4.027,0-7.291,3.264-7.291,7.291s3.264,7.291,7.291,7.291h8.02v8.02c0,4.027,3.264,7.291,7.291,7.291    c4.027,0,7.291-3.264,7.291-7.291v-8.02h8.02c4.027,0,7.291-3.264,7.291-7.291C80.83,83.775,77.565,80.511,73.539,80.511z" fill="#77787a"/><path d="M469.085,80.511h-8.02v-8.02c0-4.027-3.264-7.291-7.291-7.291c-4.027,0-7.291,3.264-7.291,7.291v8.02h-8.02    c-4.027,0-7.291,3.264-7.291,7.291s3.264,7.291,7.291,7.291h8.02v8.02c0,4.027,3.264,7.291,7.291,7.291s7.291-3.264,7.291-7.291    v-8.02h8.02c4.027,0,7.291-3.264,7.291-7.291S473.111,80.511,469.085,80.511z" fill="#77787a"/><path d="M271.312,29.619h-8.02v-8.02c0-4.027-3.264-7.291-7.291-7.291c-4.027,0-7.291,3.264-7.291,7.291v8.02h-8.02    c-4.027,0-7.291,3.264-7.291,7.291c0,4.027,3.264,7.291,7.291,7.291h8.02v8.02c0,4.027,3.264,7.291,7.291,7.291    c4.027,0,7.291-3.264,7.291-7.291v-8.02h8.02c4.027,0,7.291-3.264,7.291-7.291C278.603,32.883,275.338,29.619,271.312,29.619z" fill="#77787a"/><path d="M243.309,159.905l-116.748-44.18c-8.339-3.154-17.554,0.518-21.437,8.542l-43.593,90.076    c-2.724,5.629-4.819,11.492-6.286,17.483c-0.042,0.139-0.1,0.27-0.135,0.412c-3.466,14.336-3.18,28.804,0.24,42.327    c0.029,0.114,0.056,0.229,0.085,0.343c0.171,0.666,0.345,1.33,0.532,1.991c0.239,0.855,0.492,1.708,0.758,2.557    c0.11,0.349,0.224,0.696,0.338,1.043c0.581,1.781,1.212,3.549,1.909,5.298c0.114,0.286,0.247,0.563,0.364,0.847    c0.257,0.624,0.527,1.241,0.798,1.858c0.319,0.73,0.636,1.46,0.975,2.179c0.206,0.438,0.429,0.868,0.643,1.303    c1.345,2.741,2.825,5.4,4.435,7.971c0.324,0.519,0.644,1.04,0.979,1.553c0.395,0.602,0.804,1.193,1.213,1.785    c0.428,0.622,0.861,1.24,1.305,1.851c0.363,0.497,0.731,0.99,1.104,1.479c0.552,0.726,1.116,1.442,1.69,2.152    c0.299,0.369,0.596,0.739,0.901,1.103c0.752,0.9,1.526,1.783,2.314,2.654c0.152,0.168,0.3,0.34,0.453,0.507    c4.04,4.394,8.548,8.397,13.472,11.937c0.078,0.056,0.157,0.111,0.236,0.167c1.11,0.793,2.241,1.561,3.393,2.305    c0.174,0.113,0.349,0.225,0.525,0.336c1.054,0.67,2.125,1.319,3.212,1.947c0.25,0.145,0.499,0.291,0.75,0.434    c1.019,0.575,2.054,1.128,3.101,1.666c0.309,0.159,0.613,0.324,0.924,0.479c0.248,0.124,0.504,0.235,0.754,0.356l-35.652,94.186    c-1.449-0.546-3.033-0.632-4.534-0.244L7.251,440.89c-4.098,1.061-7.007,4.615-7.236,8.844c-0.23,4.228,2.277,8.077,6.238,9.577    l99.754,37.749c1.127,0.426,2.292,0.632,3.442,0.632c2.892,0,5.692-1.302,7.572-3.677c2.628-3.321,2.803-7.909,0.434-11.42    l-31.823-47.166c-0.868-1.287-2.114-2.273-3.565-2.822l35.635-94.166c7.733,2.135,15.685,3.198,23.628,3.198    c13.779,0,27.526-3.195,40.039-9.522c22.156-11.202,38.699-31.338,45.388-55.247l26.964-96.37    C256.123,171.915,251.647,163.061,243.309,159.905z M95.632,477.084l-68.378-25.876l36.531-9.472l10.74,4.064L95.632,477.084z     M239.266,176.455l-9.722,34.75l-94.221,8.603c-4.128,0.376-7.168,4.028-6.791,8.156s4.023,7.168,8.156,6.792l88.529-8.083    l-12.913,46.153c-5.557,19.862-19.301,36.59-37.706,45.896c-18.406,9.306-40.027,10.456-59.316,3.156    c-1.138-0.431-2.261-0.894-3.371-1.378c-0.278-0.121-0.549-0.252-0.825-0.377c-0.854-0.385-1.702-0.78-2.538-1.197    c-0.261-0.13-0.519-0.265-0.778-0.398c-0.879-0.451-1.749-0.916-2.607-1.401c-0.18-0.101-0.359-0.203-0.538-0.305    c-1.014-0.584-2.016-1.187-2.999-1.818c-0.013-0.008-0.027-0.016-0.04-0.025c-4.251-2.731-8.201-5.889-11.794-9.412    c-0.04-0.04-0.081-0.079-0.122-0.119c-0.861-0.848-1.702-1.718-2.521-2.608c-0.029-0.032-0.06-0.063-0.089-0.095    c-1.665-1.815-3.237-3.716-4.715-5.692c-0.153-0.206-0.299-0.417-0.451-0.624c-0.527-0.719-1.041-1.448-1.542-2.187    c-0.244-0.361-0.483-0.726-0.721-1.092c-0.395-0.606-0.78-1.219-1.158-1.837c-0.252-0.413-0.505-0.826-0.749-1.244    c-0.371-0.635-0.727-1.28-1.079-1.927c-0.208-0.383-0.425-0.761-0.626-1.147c-0.522-1.001-1.023-2.014-1.5-3.042    c-0.131-0.282-0.249-0.569-0.377-0.853c-0.371-0.828-0.733-1.66-1.075-2.503c-0.12-0.296-0.234-0.596-0.351-0.894    c-0.36-0.924-0.705-1.853-1.027-2.788c-0.056-0.163-0.114-0.326-0.169-0.49c-3.847-11.468-4.759-23.665-2.815-35.464l30.166-2.754    c4.128-0.377,7.168-4.028,6.791-8.156c-0.377-4.129-4.034-7.177-8.156-6.792l-24.484,2.236c0.624-1.554,1.283-3.098,2.017-4.614    l43.594-90.077c0.359-0.743,1.092-1.179,1.869-1.179c0.248,0,0.499,0.045,0.745,0.138l116.746,44.18    C239.013,174.329,239.559,175.407,239.266,176.455z" fill="#77787a"/><path d="M511.986,449.733c-0.229-4.227-3.136-7.781-7.235-8.844l-55.077-14.282c-1.5-0.388-3.087-0.303-4.54,0.245l-35.638-94.188    c0.247-0.12,0.501-0.23,0.747-0.352c0.312-0.156,0.618-0.321,0.927-0.48c1.045-0.537,2.079-1.089,3.096-1.663    c0.254-0.144,0.506-0.292,0.758-0.438c1.084-0.626,2.151-1.273,3.202-1.941c0.179-0.114,0.357-0.228,0.535-0.343    c1.148-0.742,2.276-1.508,3.383-2.298c0.081-0.058,0.163-0.114,0.243-0.172c4.921-3.539,9.426-7.539,13.464-11.93    c0.16-0.174,0.313-0.353,0.472-0.528c0.781-0.864,1.548-1.739,2.294-2.631c0.31-0.37,0.613-0.747,0.917-1.123    c0.568-0.702,1.126-1.411,1.672-2.129c0.378-0.497,0.752-0.996,1.12-1.501c0.437-0.601,0.862-1.209,1.284-1.821    c0.416-0.602,0.832-1.203,1.233-1.816c0.325-0.496,0.634-1.002,0.948-1.504c1.632-2.603,3.13-5.295,4.49-8.071    c0.201-0.411,0.412-0.816,0.607-1.23c0.344-0.732,0.667-1.475,0.992-2.218c0.264-0.603,0.528-1.206,0.779-1.815    c0.119-0.29,0.254-0.571,0.37-0.862c0.699-1.756,1.333-3.53,1.915-5.318c0.111-0.337,0.221-0.673,0.328-1.012    c0.268-0.857,0.524-1.717,0.765-2.581c0.184-0.653,0.356-1.308,0.525-1.966c0.033-0.128,0.064-0.257,0.096-0.385    c3.414-13.515,3.697-27.973,0.233-42.299c-0.034-0.142-0.093-0.273-0.135-0.412c-1.466-5.991-3.562-11.854-6.286-17.483    l-43.593-90.075c-3.883-8.025-13.098-11.699-21.438-8.543l-116.747,44.18c-8.338,3.156-12.814,12.01-10.412,20.593l26.962,96.37    c1.463,5.23,3.398,10.28,5.76,15.095c8.435,17.196,22.319,31.401,39.628,40.152c2.18,1.102,4.398,2.103,6.646,3.014    c10.659,4.323,22.013,6.508,33.393,6.507c7.941,0,15.894-1.063,23.627-3.198l35.635,94.167c-1.452,0.549-2.697,1.535-3.565,2.822    l-31.823,47.166c-2.368,3.51-2.194,8.099,0.434,11.42c1.88,2.376,4.681,3.677,7.572,3.677c1.15,0,2.315-0.206,3.442-0.632    l99.756-37.75C509.71,457.81,512.216,453.962,511.986,449.733z M406.84,317.128c-0.858,0.485-1.728,0.95-2.607,1.401    c-0.259,0.133-0.517,0.268-0.778,0.398c-0.836,0.416-1.684,0.812-2.538,1.197c-0.276,0.124-0.547,0.255-0.825,0.377    c-1.111,0.485-2.233,0.948-3.371,1.378c-19.291,7.3-40.909,6.15-59.316-3.156c-18.406-9.306-32.149-26.035-37.706-45.896    l-12.913-46.153l23.025,2.102c4.119,0.389,7.779-2.663,8.156-6.792c0.377-4.128-2.664-7.779-6.792-8.156l-28.716-2.622    l-9.723-34.751c-0.293-1.047,0.253-2.125,1.27-2.51l116.746-44.18c1.015-0.385,2.141,0.063,2.615,1.043l43.593,90.076    c0.734,1.516,1.393,3.06,2.017,4.614l-88.21-8.055c-4.134-0.378-7.779,2.664-8.156,6.792s2.663,7.778,6.791,8.156l93.892,8.574    c1.943,11.799,1.031,23.996-2.815,35.464c-0.055,0.164-0.112,0.327-0.169,0.49c-0.321,0.935-0.667,1.864-1.027,2.788    c-0.117,0.298-0.23,0.597-0.351,0.894c-0.341,0.843-0.703,1.676-1.075,2.503c-0.127,0.284-0.246,0.571-0.377,0.853    c-0.477,1.027-0.978,2.041-1.5,3.042c-0.201,0.386-0.418,0.764-0.626,1.147c-0.352,0.647-0.708,1.292-1.079,1.927    c-0.244,0.418-0.497,0.831-0.749,1.244c-0.378,0.618-0.763,1.231-1.158,1.837c-0.238,0.365-0.476,0.73-0.721,1.092    c-0.501,0.739-1.015,1.467-1.542,2.187c-0.151,0.207-0.297,0.418-0.451,0.624c-1.478,1.976-3.05,3.877-4.715,5.692    c-0.029,0.032-0.06,0.063-0.089,0.095c-0.819,0.89-1.659,1.759-2.521,2.608c-0.04,0.04-0.081,0.079-0.122,0.119    c-3.593,3.523-7.544,6.681-11.794,9.412c-0.013,0.008-0.026,0.016-0.04,0.025c-0.983,0.631-1.985,1.234-2.999,1.818    C407.199,316.925,407.019,317.026,406.84,317.128z M416.369,477.084l21.107-31.284l10.74-4.064l36.531,9.472L416.369,477.084z" fill="#77787a"/></g><g transform="matrix(0.1171877309679985 0 0 0.1171877309679985 253 219.0000020599407)" id="L1_188"><path d="M495.879,448.25h-9.402v-83.755c0-13.647-11.102-24.749-24.748-24.749h-28.295v-72.778    c0-13.646-11.102-24.748-24.748-24.748h-24.699v-63.17c0-13.646-11.102-24.748-24.748-24.748h-95.958v-9.794    c16.332-7.344,68.671-34.273,72.705-79.271c1.247-13.909-3.402-27.776-12.755-38.047c-9.151-10.049-21.602-15.614-35.058-15.668    c-11.996-0.062-23.438,4.304-32.348,12.268c-8.86-7.919-20.249-12.268-32.149-12.268c-0.067,0-0.133,0-0.2,0    c-13.457,0.054-25.907,5.619-35.059,15.669c-9.352,10.27-14.001,24.137-12.754,38.046c4.034,44.998,56.373,71.927,72.705,79.271    v9.794h-43.983c-4.118,0-7.456,3.338-7.456,7.456s3.338,7.456,7.456,7.456H359.24c5.423,0,9.835,4.412,9.835,9.835v21.083    c-2.798-1.264-5.03-3.262-7.687-5.641c-5.427-4.856-12.181-10.9-25.088-10.9c-12.907,0-19.662,6.044-25.089,10.9    c-4.606,4.122-7.935,7.101-15.144,7.101c-7.21,0-10.538-2.979-15.145-7.101c-5.427-4.856-12.182-10.9-25.089-10.9    c-12.907,0-19.662,6.044-25.089,10.9c-4.606,4.122-7.935,7.101-15.144,7.101c-7.211,0-10.54-2.979-15.148-7.101    c-5.428-4.856-12.183-10.9-25.091-10.9s-19.664,6.044-25.091,10.9c-2.659,2.379-4.892,4.377-7.691,5.642v-21.082    c0-5.423,4.412-9.835,9.835-9.835h17.178c4.118,0,7.456-3.338,7.456-7.456c0-4.118-3.338-7.456-7.456-7.456h-17.178    c-13.646,0-24.748,11.102-24.748,24.748v63.17h-24.699c-13.646,0-24.748,11.102-24.748,24.748v72.778H49.923    c-13.646,0-24.748,11.102-24.748,24.749v29.997v53.758h-9.054C7.232,448.25,0,455.482,0,464.372v19.985    c0,8.889,7.232,16.121,16.121,16.121h479.757c8.889,0,16.121-7.232,16.121-16.121v-19.985    C512,455.482,504.768,448.25,495.879,448.25z M190.518,63.906c-0.875-9.76,2.379-19.483,8.927-26.673    c6.306-6.925,14.863-10.759,24.094-10.797c0.047,0,0.092,0,0.138,0c8.338,0,16.314,3.089,22.469,8.707    c5.52,5.04,13.844,5.039,19.36,0.001c6.156-5.618,14.131-8.708,22.469-8.708c0.046,0,0.092,0,0.138,0    c9.231,0.038,17.787,3.872,24.093,10.796c6.549,7.191,9.802,16.914,8.927,26.674c-3.397,37.895-53.063,62.154-65.313,67.581    C243.552,126.071,193.923,101.891,190.518,63.906z M142.577,215.739c8.26-1.77,13.366-6.312,17.635-10.132    c4.607-4.122,7.936-7.101,15.148-7.101s10.54,2.979,15.148,7.101c5.428,4.856,12.183,10.9,25.091,10.9    c12.907,0,19.662-6.044,25.089-10.9c4.606-4.122,7.935-7.101,15.144-7.101c7.21,0,10.538,2.979,15.146,7.101    c5.427,4.856,12.182,10.9,25.089,10.9s19.662-6.044,25.089-10.9c4.606-4.122,7.935-7.101,15.144-7.101    c7.209,0,10.537,2.979,15.144,7.101c4.269,3.82,9.373,8.361,17.632,10.132v26.482H142.577V215.739z M102.966,257.133h305.72    c5.423,0,9.835,4.412,9.835,9.835v21.33c-3.373-1.263-5.919-3.418-8.994-6.021c-5.667-4.796-12.719-10.766-26.085-10.766    c-13.366,0-20.419,5.969-26.086,10.766c-4.964,4.201-8.55,7.236-16.452,7.236c-7.901,0-11.487-3.035-16.45-7.236    c-5.667-4.796-12.719-10.766-26.085-10.766c-13.366,0-20.418,5.97-26.085,10.766c-4.963,4.201-8.549,7.236-16.451,7.236    c-7.902,0-11.488-3.035-16.452-7.236c-5.667-4.797-12.719-10.766-26.085-10.766c-13.367,0-20.419,5.97-26.086,10.766    c-4.963,4.201-8.549,7.236-16.45,7.236c-7.904,0-11.491-3.035-16.454-7.236c-5.667-4.797-12.721-10.766-26.088-10.766    s-20.421,5.969-26.088,10.766c-3.076,2.603-5.624,4.759-8.998,6.022v-21.331h-0.001    C93.131,261.545,97.543,257.133,102.966,257.133z M49.923,354.659h301.564c4.118,0,7.456-3.338,7.456-7.456    s-3.338-7.456-7.456-7.456H93.131v-36.022c8.733-1.707,14.126-6.251,18.632-10.064c4.964-4.201,8.55-7.236,16.454-7.236    s11.49,3.035,16.454,7.236c5.667,4.797,12.721,10.766,26.088,10.766c13.366,0,20.418-5.969,26.085-10.766    c4.963-4.201,8.549-7.236,16.451-7.236c7.902,0,11.488,3.035,16.451,7.236c5.667,4.796,12.72,10.766,26.086,10.766    c13.366,0,20.418-5.97,26.085-10.766c4.963-4.201,8.549-7.236,16.45-7.236s11.487,3.035,16.45,7.236    c5.667,4.796,12.719,10.766,26.085,10.766c13.367,0,20.419-5.969,26.086-10.766c4.964-4.201,8.549-7.236,16.452-7.236    c7.901,0,11.487,3.035,16.45,7.236c4.505,3.813,9.898,8.356,18.629,10.064v36.022H386.18c-4.118,0-7.456,3.338-7.456,7.456    s3.338,7.456,7.456,7.456h75.549c5.423,0,9.835,4.413,9.835,9.836v21.338c-3.676-1.277-6.413-3.479-9.736-6.152    c-5.893-4.742-13.227-10.644-27.029-10.644c-13.804,0-21.136,5.906-27.027,10.65c-5.299,4.268-9.127,7.351-17.672,7.351    c-8.545,0-12.373-3.083-17.671-7.351c-5.891-4.745-13.222-10.65-27.026-10.65c-13.804,0-21.136,5.906-27.027,10.65    c-5.299,4.268-9.127,7.351-17.672,7.351c-8.545,0-12.373-3.083-17.671-7.351c-5.89-4.745-13.222-10.65-27.025-10.65    c-13.804,0-21.135,5.906-27.026,10.65c-5.299,4.268-9.127,7.351-17.671,7.351c-8.546,0-12.374-3.083-17.673-7.351    c-5.891-4.746-13.222-10.65-27.027-10.65c-13.804,0-21.135,5.906-27.026,10.65c-5.299,4.268-9.127,7.351-17.672,7.351    c-8.547,0-12.376-3.083-17.676-7.351c-5.891-4.746-13.223-10.65-27.029-10.65c-13.804,0-21.138,5.904-27.03,10.648    c-3.423,2.756-6.23,5.017-10.089,6.274v-21.464h-0.001C40.088,359.072,44.5,354.659,49.923,354.659z M40.088,401.279    c9.104-1.671,14.738-6.193,19.442-9.979c5.3-4.268,9.13-7.351,17.678-7.351c8.547,0,12.376,3.083,17.675,7.351    c5.892,4.746,13.224,10.65,27.03,10.65c13.804,0,21.135-5.906,27.026-10.65c5.299-4.268,9.127-7.351,17.672-7.351    c8.545,0,12.374,3.083,17.672,7.351c5.891,4.745,13.223,10.65,27.027,10.65s21.135-5.906,27.026-10.65    c5.299-4.268,9.127-7.351,17.672-7.351c8.544,0,12.372,3.083,17.67,7.351c5.891,4.745,13.222,10.65,27.026,10.65    c13.804,0,21.136-5.905,27.027-10.65c5.299-4.268,9.127-7.351,17.673-7.351c8.545,0,12.373,3.083,17.671,7.351    c5.891,4.745,13.222,10.65,27.026,10.65s21.136-5.906,27.027-10.65c5.299-4.268,9.127-7.351,17.672-7.351    c8.547,0,12.378,3.083,17.68,7.35c4.638,3.731,10.192,8.184,19.085,9.907v47.045H40.088V401.279z M497.087,484.358    c0,0.666-0.542,1.209-1.209,1.209H16.121c-0.667,0-1.209-0.543-1.209-1.209v-19.985c0-0.667,0.542-1.21,1.209-1.21h479.757    c0.667,0,1.209,0.543,1.209,1.21V484.358z" fill="#3fb8af"/><path d="M284.646,37.34c-12.861,0-22.746,7.76-28.82,14.349c-6.073-6.588-15.959-14.349-28.819-14.349    c-13.277,0-24.078,10.802-24.078,24.079c0,10.169,4.725,25.85,27.233,42.81c7.971,6.006,16.078,10.547,21.481,13.3    c1.288,0.655,2.735,1.002,4.184,1.002c1.449,0,2.896-0.347,4.189-1.005c5.398-2.75,13.505-7.291,21.476-13.297    c22.508-16.96,27.233-32.641,27.233-42.81C308.724,48.142,297.922,37.34,284.646,37.34z M272.517,92.318    c-5.944,4.479-12.017,8.067-16.691,10.571c-4.676-2.506-10.748-6.093-16.691-10.571c-13.732-10.347-21.294-21.32-21.294-30.899    c0-5.054,4.112-9.166,9.166-9.166c9.313,0,16.816,7.913,20.435,12.597c0.032,0.043,0.066,0.086,0.101,0.13    c2.003,2.537,5.019,3.991,8.283,3.991c3.279,0,6.308-1.467,8.311-4.025v-0.001c0.018-0.022,0.036-0.046,0.054-0.069    c3.646-4.717,11.147-12.623,20.455-12.623c5.054,0,9.166,4.112,9.166,9.166C293.811,70.997,286.249,81.971,272.517,92.318z" fill="#3fb8af"/></g></defs><g fi:class="KUsePattern"><pattern id="pattern_L1_185" width="350" height="350" patternUnits="userSpaceOnUse"><use xlink:href="#L1_185" x="-350" y="-350"/><use xlink:href="#L1_185" x="0" y="-350"/><use xlink:href="#L1_185" x="350" y="-350"/><use xlink:href="#L1_185" x="-350" y="0"/><use xlink:href="#L1_185" x="0" y="0"/><use xlink:href="#L1_185" x="350" y="0"/><use xlink:href="#L1_185" x="-350" y="350"/><use xlink:href="#L1_185" x="0" y="350"/><use xlink:href="#L1_185" x="350" y="350"/></pattern><rect x="0" y="0" width="100%" height="100%" fill="url(#pattern_L1_185)"/></g><g fi:class="KUsePattern"><pattern id="pattern_L1_186" width="350" height="350" patternUnits="userSpaceOnUse"><use xlink:href="#L1_186" x="-350" y="-350"/><use xlink:href="#L1_186" x="0" y="-350"/><use xlink:href="#L1_186" x="350" y="-350"/><use xlink:href="#L1_186" x="-350" y="0"/><use xlink:href="#L1_186" x="0" y="0"/><use xlink:href="#L1_186" x="350" y="0"/><use xlink:href="#L1_186" x="-350" y="350"/><use xlink:href="#L1_186" x="0" y="350"/><use xlink:href="#L1_186" x="350" y="350"/></pattern><rect x="0" y="0" width="100%" height="100%" fill="url(#pattern_L1_186)"/></g><g fi:class="KUsePattern"><pattern id="pattern_L1_187" width="350" height="350" patternUnits="userSpaceOnUse"><use xlink:href="#L1_187" x="-350" y="-350"/><use xlink:href="#L1_187" x="0" y="-350"/><use xlink:href="#L1_187" x="350" y="-350"/><use xlink:href="#L1_187" x="-350" y="0"/><use xlink:href="#L1_187" x="0" y="0"/><use xlink:href="#L1_187" x="350" y="0"/><use xlink:href="#L1_187" x="-350" y="350"/><use xlink:href="#L1_187" x="0" y="350"/><use xlink:href="#L1_187" x="350" y="350"/></pattern><rect x="0" y="0" width="100%" height="100%" fill="url(#pattern_L1_187)"/></g><g fi:class="KUsePattern"><pattern id="pattern_L1_188" width="350" height="350" patternUnits="userSpaceOnUse"><use xlink:href="#L1_188" x="-350" y="-350"/><use xlink:href="#L1_188" x="0" y="-350"/><use xlink:href="#L1_188" x="350" y="-350"/><use xlink:href="#L1_188" x="-350" y="0"/><use xlink:href="#L1_188" x="0" y="0"/><use xlink:href="#L1_188" x="350" y="0"/><use xlink:href="#L1_188" x="-350" y="350"/><use xlink:href="#L1_188" x="0" y="350"/><use xlink:href="#L1_188" x="350" y="350"/></pattern><rect x="0" y="0" width="100%" height="100%" fill="url(#pattern_L1_188)"/></g></svg>